<svg viewBox="0 0 20 20" xmlns="http://www.w3.org/2000/svg"><path d="m4.49961951 11c2.48507063 0 4.49961841 2.0147186 4.49961841 4.5s-2.01454778 4.5-4.49961841 4.5-4.49961841-2.0147186-4.49961841-4.5 2.01454778-4.5 4.49961841-4.5zm11.49902479 1c2.2089517 0 3.9996608 1.790861 3.9996608 4s-1.7907091 4-3.9996608 4c-2.2089516 0-3.9996608-1.790861-3.9996608-4s1.7907092-4 3.9996608-4zm-11.49902479 1.5714286c-1.06503027 0-1.92840789.8634508-1.92840789 1.9285714s.86337762 1.9285714 1.92840789 1.9285714 1.92840789-.8634508 1.92840789-1.9285714-.86337762-1.9285714-1.92840789-1.9285714zm11.49902479 1.0952381c-.7363172 0-1.3332202.5969536-1.3332202 1.3333333s.596903 1.3333333 1.3332202 1.3333333c.7363173 0 1.3332203-.5969536 1.3332203-1.3333333s-.596903-1.3333333-1.3332203-1.3333333zm-9.99915199-14.6666667c1.45997664 0 2.52719919.66824777 3.00048982 2l.85131088 4.25645521c1.43281889.0957777 2.81930529.21607746 4.14683919.36134968l.0006817-4.61780489h1.9998304l.0006712 4.86201594c.9619706.13026453 1.8860042.27513877 2.7665315.43482148.7789468.14126119 1.2324581.61445908 1.2324581 1.28409408l.0016949 4.4199934c-.9124345-1.2124277-2.3646341-1.9965992-4.0002234-1.9965992-2.4193502 0-4.4374421 1.7157737-4.9008729 3.9954071l-1.11949061.0008057c-.2524669-2.8002348-2.60884533-4.9946801-5.47842629-4.9946801-1.27301227 0-2.44502555.43187-3.37716198 1.1569112l-1.11987429.0006562-.00077084-1.17992184c-.00072513-.99817529-.00179606-2.16228411-.00317419-2.65779069-.00165309-.59672772.36934798-1.179545.99893688-1.30217107l.00097392-5.0235422c0-.55228475.44771525-1 1-1zm.9999152 2h-3.9996608l-.00074671 4h.74917487c1.38668485.02670609 2.74966411.07289905 4.07965025.13891034z" fill-rule="evenodd"/></svg>